<?xml version="1.0" encoding="UTF-8" standalone="no"?>
<svg
   xmlns:dc="http://purl.org/dc/elements/1.1/"
   xmlns:cc="http://creativecommons.org/ns#"
   xmlns:rdf="http://www.w3.org/1999/02/22-rdf-syntax-ns#"
   xmlns:svg="http://www.w3.org/2000/svg"
   xmlns="http://www.w3.org/2000/svg"
   xmlns:sodipodi="http://sodipodi.sourceforge.net/DTD/sodipodi-0.dtd"
   xmlns:inkscape="http://www.inkscape.org/namespaces/inkscape"
   version="1.1"
   id="Layer_1"
   x="0px"
   y="0px"
   viewBox="0 0 1920 1080"
   style="enable-background:new 0 0 1920 1080;"
   xml:space="preserve"
   sodipodi:docname="sel.svg"
   inkscape:version="1.0.2 (e86c870879, 2021-01-15)"><metadata
   id="metadata75"><rdf:RDF><cc:Work
       rdf:about=""><dc:format>image/svg+xml</dc:format><dc:type
         rdf:resource="http://purl.org/dc/dcmitype/StillImage" /><dc:title></dc:title></cc:Work></rdf:RDF></metadata><defs
   id="defs73" /><sodipodi:namedview
   pagecolor="#ffffff"
   bordercolor="#666666"
   borderopacity="1"
   objecttolerance="10"
   gridtolerance="10"
   guidetolerance="10"
   inkscape:pageopacity="0"
   inkscape:pageshadow="2"
   inkscape:window-width="1920"
   inkscape:window-height="1080"
   id="namedview71"
   showgrid="false"
   inkscape:zoom="0.63072917"
   inkscape:cx="657.96862"
   inkscape:cy="540"
   inkscape:window-x="1920"
   inkscape:window-y="0"
   inkscape:window-maximized="0"
   inkscape:current-layer="g68" />
<style
   type="text/css"
   id="style2">
	.st0{fill:#00BCFF;}
	.st1{fill:#00A9FF;}
	.st2{fill:#00A4E5;}
	.st3{fill:#063545;}
</style>
<g
   id="g68">
	<g
   id="g48">
		<g
   id="g8">
			<path
   class="st0"
   d="M931.1,534.4c-8.5-8.5-8.5-22.3,0-30.8l28.9-28.9l0,0l57.3-57.3L960,302l-35.2,70.9v66.2l-22-22L852.1,519     l70,70l31.8-31.8L931.1,534.4z"
   id="path4" />
			<path
   class="st0"
   d="M1067.9,519l-46.5-93.4l-55.3,55.3l22.7,22.7c8.5,8.5,8.5,22.3,0,30.8l-60.7,60.7l31.8,31.8L1067.9,519z"
   id="path6" />
		</g>
		<polygon
   class="st0"
   points="924.8,372.9 1017.3,417.3 960,302   "
   id="polygon10" />
		<polygon
   class="st1"
   points="924.8,372.9 970,464.6 1017.3,417.3   "
   id="polygon12" />
		<polygon
   class="st2"
   points="924.8,439.1 970,464.6 924.8,372.9   "
   id="polygon14" />
		<polygon
   class="st1"
   points="924.8,439.1 852.1,519 902.8,417.1   "
   id="polygon16" />
		<polygon
   class="st0"
   points="852.1,519 931.1,503.5 970,464.6 924.8,439.1   "
   id="polygon18" />
		<path
   class="st1"
   d="M931.1,503.5l-79,15.4l101.8,38.2l-22.8-22.8C922.6,525.9,922.6,512.1,931.1,503.5z"
   id="path20" />
		<polygon
   class="st1"
   points="924.8,439.1 931.1,503.5 970,464.6   "
   id="polygon22" />
		<polygon
   class="st2"
   points="922.1,589 903,538.1 953.9,557.2   "
   id="polygon24" />
		<polygon
   class="st0"
   points="978.5,468.5 1021.4,425.5 1067.9,519   "
   id="polygon26" />
		<path
   class="st2"
   d="M993.9,511.2L993.9,511.2l-15.4-42.7l-12.3,12.3l22.7,22.7C991.2,505.8,992.8,508.4,993.9,511.2z"
   id="path28" />
		<polygon
   class="st1"
   points="1023.2,514.3 1021.4,565.5 1067.9,519   "
   id="polygon30" />
		<polygon
   class="st1"
   points="1021.4,425.5 1021.4,492.7 1067.9,519   "
   id="polygon32" />
		<polygon
   class="st0"
   points="976.4,547.2 960,626.9 1021.4,565.5   "
   id="polygon34" />
		<polygon
   class="st1"
   points="993.9,511.2 1021.4,565.5 1067.9,519   "
   id="polygon36" />
		<polygon
   class="st0"
   points="1030.3,514.3 1021.4,565.5 1067.9,519   "
   id="polygon38" />
		<polygon
   class="st2"
   points="978.5,468.5 993.9,511.2 1067.9,519   "
   id="polygon40" />
		<polygon
   class="st1"
   points="1021.4,492.7 993.9,511.2 978.5,468.5   "
   id="polygon42" />
		<polygon
   class="st1"
   points="976.4,547.2 990.7,596.2 1021.4,565.5   "
   id="polygon44" />
		<polygon
   class="st2"
   points="976.4,547.2 960,626.9 928.2,595.1   "
   id="polygon46" />
	</g>
	<g
   id="g66">
		
		
		
		
		
		
		
		
	</g>
</g>
</svg>
